<svg class="t-sociallinks__svg" role="presentation" width="32px" height="32px" viewBox="0 0 100 100" fill="none" xmlns="http://www.w3.org/2000/svg"><path fill-rule="evenodd" clip-rule="evenodd" d="M50 100c27.6142 0 50-22.3858 50-50S77.6142 0 50 0 0 22.3858 0 50s22.3858 50 50 50Zm23-31.0002V52.363c0-8.9114-4.7586-13.0586-11.1079-13.0586-5.1234 0-7.4123 2.8199-8.6942 4.7942v-4.1124h-9.6468c.1297 2.7235 0 29.0136 0 29.0136h9.6484v-16.203c0-.8675.0657-1.731.3203-2.3513.6981-1.7351 2.284-3.5286 4.9491-3.5286 3.4905 0 4.8859 2.6611 4.8859 6.5602v15.5227H73ZM53.1979 44.0986v.094h-.0632c.0069-.0111.0148-.0228.0229-.0346.0137-.0198.0281-.0401.0403-.0594ZM28 31.0123C28 28.1648 30.1583 26 33.4591 26c3.3016 0 5.3302 2.1648 5.3934 5.0123 0 2.7851-2.0918 5.0156-5.4567 5.0156h-.064c-3.2351 0-5.3318-2.2305-5.3318-5.0156Zm10.2177 37.9875h-9.6445V39.9862h9.6445v29.0136Z" fill="#000000"></path></svg>